<svg id="Layer_1" data-name="Layer 1" xmlns="http://www.w3.org/2000/svg" viewBox="0 0 140 225"><defs><style>.cls-1{fill:#4d4d4d;}.cls-2{fill:#f15a24;}</style></defs><title>Untitled-1</title><path class="cls-1" d="M72.89,215.17,58,224.58v-97l-4.55-1.52c-21-7-34.32-18.84-37.6-33.33-2.67-11.76,1.63-24.15,11.8-34,9.28-9,22.25-19.3,32.69-27.6,3.78-3,7.06-5.58,9.66-7.75a4.76,4.76,0,0,0,.6-6.52c-1.83-2.19-4.84-1.83-6.88-.34L57.76,21.2l-9-12.14,6.11-4.51C63.68-1.9,75.36-.67,82.06,7.41a19.54,19.54,0,0,1-2.59,27.54c-2.71,2.24-6,4.87-9.85,7.91C59.43,51,46.76,61,38,69.52c-6.42,6.22-9.13,13.3-7.62,20,2.09,9.18,11.89,17.14,27.61,22.42V63.42c42.26,14.28,72.11,64.2,82,91.9,0,0-43.8-14.85-67.11-22.69Zm0-98.28c13,4.37,28.38,9.56,39.8,13.43a125.82,125.82,0,0,0-39.8-42.77Z"/><polygon points="72.89 142.4 57.98 137.38 57.98 127.62 72.89 132.63 72.89 142.4"/><path class="cls-2" d="M.88,57.39a.55.55,0,0,1-.76-.08.57.57,0,0,1,.08-.78c5.18-4.73,25.65-25,48.57-47.47l9,12.14S1.61,56.87.88,57.39Z"/></svg>